<?xml version="1.0" encoding="UTF-8" standalone="no"?> <svg width="64" height="64" viewBox="0 0 64 64" fill="none" xmlns="http://www.w3.org/2000/svg">
<path d="M31.446 8.835C31.0342 9.03467 30.6831 9.34055 30.429 9.72111C30.1748 10.1017 30.0267 10.5431 30 11C30 11.2652 30.1054 11.5196 30.2929 11.7071C30.4804 11.8946 30.7348 12 31 12C31.2652 12 31.5196 11.8946 31.7071 11.7071C31.8946 11.5196 32 11.2652 32 11C32 10.888 32.163 10.761 32.555 10.5C32.9666 10.3004 33.3175 9.9947 33.5715 9.61431C33.8255 9.23391 33.9734 8.79263 34 8.336C33.9732 7.87915 33.8253 7.43768 33.5713 7.05699C33.3173 6.6763 32.9665 6.37014 32.555 6.17C32.163 5.909 32 5.782 32 5.67C32 5.558 32.164 5.429 32.555 5.17C32.9671 4.96953 33.3183 4.66275 33.5723 4.2813C33.8263 3.89985 33.9739 3.45754 34 3C34 2.73478 33.8946 2.48043 33.7071 2.29289C33.5196 2.10536 33.2652 2 33 2C32.7348 2 32.4804 2.10536 32.2929 2.29289C32.1054 2.48043 32 2.73478 32 3C32 3.114 31.836 3.241 31.445 3.5C31.0332 3.70031 30.6822 4.00678 30.4282 4.38785C30.1742 4.76892 30.0264 5.21081 30 5.668C30.0265 6.1249 30.1744 6.56646 30.4284 6.94719C30.6824 7.32791 31.0333 7.63403 31.445 7.834C31.836 8.095 32 8.223 32 8.334C32 8.445 31.837 8.575 31.446 8.835Z" fill="black"/>
<path d="M26.446 8.835C26.0342 9.03467 25.6831 9.34055 25.429 9.72111C25.1748 10.1017 25.0267 10.5431 25 11C25 11.2652 25.1054 11.5196 25.2929 11.7071C25.4804 11.8946 25.7348 12 26 12C26.2652 12 26.5196 11.8946 26.7071 11.7071C26.8946 11.5196 27 11.2652 27 11C27 10.888 27.163 10.761 27.555 10.5C27.9666 10.3004 28.3175 9.9947 28.5715 9.61431C28.8255 9.23391 28.9734 8.79263 29 8.336C28.9732 7.87915 28.8253 7.43768 28.5713 7.05699C28.3173 6.6763 27.9665 6.37014 27.555 6.17C27.163 5.909 27 5.782 27 5.67C27 5.558 27.164 5.429 27.555 5.17C27.9671 4.96953 28.3183 4.66275 28.5723 4.2813C28.8263 3.89985 28.9739 3.45754 29 3C29 2.73478 28.8946 2.48043 28.7071 2.29289C28.5196 2.10536 28.2652 2 28 2C27.7348 2 27.4804 2.10536 27.2929 2.29289C27.1054 2.48043 27 2.73478 27 3C27 3.114 26.836 3.241 26.445 3.5C26.0332 3.70031 25.6822 4.00678 25.4282 4.38785C25.1742 4.76892 25.0264 5.21081 25 5.668C25.0265 6.1249 25.1744 6.56646 25.4284 6.94719C25.6824 7.32791 26.0333 7.63403 26.445 7.834C26.836 8.095 27 8.223 27 8.334C27 8.445 26.837 8.575 26.446 8.835Z" fill="black"/>
<path d="M21.446 8.835C21.0342 9.03467 20.6831 9.34055 20.429 9.72111C20.1748 10.1017 20.0267 10.5431 20 11C20 11.2652 20.1054 11.5196 20.2929 11.7071C20.4804 11.8946 20.7348 12 21 12C21.2652 12 21.5196 11.8946 21.7071 11.7071C21.8946 11.5196 22 11.2652 22 11C22 10.888 22.163 10.761 22.555 10.5C22.9666 10.3004 23.3175 9.9947 23.5715 9.61431C23.8255 9.23391 23.9734 8.79263 24 8.336C23.9732 7.87915 23.8253 7.43768 23.5713 7.05699C23.3173 6.6763 22.9665 6.37014 22.555 6.17C22.163 5.909 22 5.782 22 5.67C22 5.558 22.164 5.429 22.555 5.17C22.9671 4.96953 23.3183 4.66275 23.5723 4.2813C23.8263 3.89985 23.9739 3.45754 24 3C24 2.73478 23.8946 2.48043 23.7071 2.29289C23.5196 2.10536 23.2652 2 23 2C22.7348 2 22.4804 2.10536 22.2929 2.29289C22.1054 2.48043 22 2.73478 22 3C22 3.114 21.836 3.241 21.445 3.5C21.0332 3.70031 20.6822 4.00678 20.4282 4.38785C20.1742 4.76892 20.0264 5.21081 20 5.668C20.0265 6.1249 20.1744 6.56646 20.4284 6.94719C20.6824 7.32791 21.0333 7.63403 21.445 7.834C21.836 8.095 22 8.223 22 8.334C22 8.445 21.837 8.575 21.446 8.835Z" fill="black"/>
<path d="M36.446 8.835C36.0342 9.03467 35.6831 9.34055 35.429 9.72111C35.1748 10.1017 35.0267 10.5431 35 11C35 11.2652 35.1054 11.5196 35.2929 11.7071C35.4804 11.8946 35.7348 12 36 12C36.2652 12 36.5196 11.8946 36.7071 11.7071C36.8946 11.5196 37 11.2652 37 11C37 10.888 37.163 10.761 37.555 10.5C37.9666 10.3004 38.3175 9.9947 38.5715 9.61431C38.8255 9.23391 38.9734 8.79263 39 8.336C38.9732 7.87915 38.8253 7.43768 38.5713 7.05699C38.3173 6.6763 37.9665 6.37014 37.555 6.17C37.163 5.909 37 5.782 37 5.67C37 5.558 37.164 5.429 37.555 5.17C37.9671 4.96953 38.3183 4.66275 38.5723 4.2813C38.8263 3.89985 38.9739 3.45754 39 3C39 2.73478 38.8946 2.48043 38.7071 2.29289C38.5196 2.10536 38.2652 2 38 2C37.7348 2 37.4804 2.10536 37.2929 2.29289C37.1054 2.48043 37 2.73478 37 3C37 3.114 36.836 3.241 36.445 3.5C36.0332 3.70031 35.6822 4.00678 35.4282 4.38785C35.1742 4.76892 35.0264 5.21081 35 5.668C35.0265 6.1249 35.1744 6.56646 35.4284 6.94719C35.6824 7.32791 36.0333 7.63403 36.445 7.834C36.836 8.095 37 8.223 37 8.334C37 8.445 36.837 8.575 36.446 8.835Z" fill="black"/>
<path d="M41.446 8.835C41.0342 9.03467 40.6831 9.34055 40.429 9.72111C40.1748 10.1017 40.0267 10.5431 40 11C40 11.2652 40.1054 11.5196 40.2929 11.7071C40.4804 11.8946 40.7348 12 41 12C41.2652 12 41.5196 11.8946 41.7071 11.7071C41.8946 11.5196 42 11.2652 42 11C42 10.888 42.163 10.761 42.555 10.5C42.9666 10.3004 43.3175 9.9947 43.5715 9.61431C43.8255 9.23391 43.9734 8.79263 44 8.336C43.9732 7.87915 43.8253 7.43768 43.5713 7.05699C43.3173 6.6763 42.9665 6.37014 42.555 6.17C42.163 5.909 42 5.782 42 5.67C42 5.558 42.164 5.429 42.555 5.17C42.9671 4.96953 43.3183 4.66275 43.5723 4.2813C43.8263 3.89985 43.9739 3.45754 44 3C44 2.73478 43.8946 2.48043 43.7071 2.29289C43.5196 2.10536 43.2652 2 43 2C42.7348 2 42.4804 2.10536 42.2929 2.29289C42.1054 2.48043 42 2.73478 42 3C42 3.114 41.836 3.241 41.445 3.5C41.0332 3.70031 40.6822 4.00678 40.4282 4.38785C40.1742 4.76892 40.0264 5.21081 40 5.668C40.0265 6.1249 40.1744 6.56646 40.4284 6.94719C40.6824 7.32791 41.0333 7.63403 41.445 7.834C41.836 8.095 42 8.223 42 8.334C42 8.445 41.837 8.575 41.446 8.835Z" fill="black"/>
<path d="M55 25L50.89 25.02C50.93 24.68 50.95 24.34 50.97 24H51C51.7956 24 52.5587 23.6839 53.1213 23.1213C53.6839 22.5587 54 21.7957 54 21C54 20.2044 53.6839 19.4413 53.1213 18.8787C52.5587 18.3161 51.7956 18 51 18H48.9C48.6705 16.8697 48.0573 15.8535 47.1643 15.1236C46.2712 14.3937 45.1534 13.995 44 13.995C42.8466 13.995 41.7288 14.3937 40.8357 15.1236C39.9427 15.8535 39.3295 16.8697 39.1 18H36.9C36.6705 16.8697 36.0573 15.8535 35.1643 15.1236C34.2712 14.3937 33.1534 13.995 32 13.995C30.8466 13.995 29.7288 14.3937 28.8357 15.1236C27.9427 15.8535 27.3295 16.8697 27.1 18H24.9C24.6705 16.8697 24.0573 15.8535 23.1643 15.1236C22.2712 14.3937 21.1534 13.995 20 13.995C18.8466 13.995 17.7288 14.3937 16.8357 15.1236C15.9427 15.8535 15.3295 16.8697 15.1 18H13C12.2044 18 11.4413 18.3161 10.8787 18.8787C10.3161 19.4413 10 20.2044 10 21C10 21.7957 10.3161 22.5587 10.8787 23.1213C11.4413 23.6839 12.2044 24 13 24H13.03C13.05 24.34 13.07 24.68 13.11 25.02L9 25C8.73478 25 8.48043 25.1054 8.29289 25.2929C8.10536 25.4804 8 25.7348 8 26C8 26.2652 8.10536 26.5196 8.29289 26.7071C8.48043 26.8947 8.73478 27 9 27L13.43 27.02C14.2915 31.0066 16.4169 34.6085 19.49 37.29L13.99 57.82C13.789 58.5879 13.9004 59.4041 14.3 60.09C14.4944 60.4321 14.7557 60.7316 15.0684 60.9704C15.3811 61.2092 15.7388 61.3825 16.12 61.48C16.3763 61.5564 16.6426 61.5935 16.91 61.59C17.4287 61.5899 17.9386 61.4556 18.39 61.2C19.0813 60.7979 19.5875 60.141 19.8 59.37L22.34 49.85L29 51.75V59C29 59.7957 29.3161 60.5587 29.8787 61.1213C30.4413 61.6839 31.2044 62 32 62C32.7956 62 33.5587 61.6839 34.1213 61.1213C34.6839 60.5587 35 59.7957 35 59V51.75L41.66 49.85L44.21 59.37C44.3754 60.0073 44.7483 60.5714 45.2697 60.9733C45.7912 61.3753 46.4316 61.5923 47.09 61.59C47.3534 61.5925 47.6158 61.5589 47.87 61.49C48.2529 61.3903 48.612 61.2151 48.9263 60.9747C49.2406 60.7343 49.5036 60.4335 49.7 60.09C50.0998 59.4006 50.2113 58.5812 50.01 57.81L44.51 37.29C47.5831 34.6085 49.7085 31.0066 50.57 27.02L55 27C55.2652 27 55.5196 26.8947 55.7071 26.7071C55.8946 26.5196 56 26.2652 56 26C56 25.7348 55.8946 25.4804 55.7071 25.2929C55.5196 25.1054 55.2652 25 55 25ZM44 16C44.6186 16.0032 45.2212 16.1969 45.7258 16.5548C46.2304 16.9126 46.6124 17.4173 46.82 18H41.18C41.3876 17.4173 41.7696 16.9126 42.2742 16.5548C42.7788 16.1969 43.3814 16.0032 44 16V16ZM32 16C32.6186 16.0032 33.2212 16.1969 33.7258 16.5548C34.2304 16.9126 34.6124 17.4173 34.82 18H29.18C29.3876 17.4173 29.7696 16.9126 30.2742 16.5548C30.7788 16.1969 31.3814 16.0032 32 16V16ZM20 16C20.6186 16.0032 21.2212 16.1969 21.7258 16.5548C22.2304 16.9126 22.6124 17.4173 22.82 18H17.18C17.3876 17.4173 17.7696 16.9126 18.2742 16.5548C18.7788 16.1969 19.3814 16.0032 20 16V16ZM17.87 58.85C17.834 58.9782 17.7731 59.0981 17.6907 59.2028C17.6084 59.3075 17.5062 59.3949 17.39 59.46C17.2184 59.5577 17.0217 59.6023 16.8248 59.5884C16.6279 59.5745 16.4394 59.5026 16.2833 59.3817C16.1272 59.2609 16.0103 59.0965 15.9474 58.9094C15.8846 58.7222 15.8785 58.5206 15.93 58.33L21.2 38.62C21.7751 39.0207 22.3727 39.388 22.99 39.72L17.87 58.85ZM29 49.67L22.86 47.92L23.34 46.14L29 47.75V49.67ZM29 45.67L23.85 44.21L24.83 40.58C26.1696 41.1313 27.5691 41.524 29 41.75V45.67ZM33 59C33 59.2652 32.8946 59.5196 32.7071 59.7071C32.5196 59.8947 32.2652 60 32 60C31.7348 60 31.4804 59.8947 31.2929 59.7071C31.1054 59.5196 31 59.2652 31 59V35C31 34.7348 31.1054 34.4804 31.2929 34.2929C31.4804 34.1054 31.7348 34 32 34C32.2652 34 32.5196 34.1054 32.7071 34.2929C32.8946 34.4804 33 34.7348 33 35V59ZM35 49.67V47.75L40.66 46.14L41.14 47.92L35 49.67ZM35 45.67V41.75C36.4309 41.524 37.8304 41.1313 39.17 40.58L40.15 44.21L35 45.67ZM48.07 58.32C48.1065 58.4484 48.1165 58.5829 48.0993 58.7153C48.0821 58.8477 48.0381 58.9752 47.97 59.09C47.9044 59.2048 47.8168 59.3054 47.7121 59.3861C47.6074 59.4668 47.4877 59.5259 47.36 59.56C47.2346 59.5941 47.1037 59.6028 46.9749 59.5856C46.8461 59.5685 46.7221 59.5258 46.61 59.46C46.4939 59.3961 46.3923 59.3089 46.3114 59.204C46.2306 59.099 46.1722 58.9785 46.14 58.85L41.01 39.72C41.6273 39.388 42.2249 39.0207 42.8 38.62L48.07 58.32ZM42.74 36.17C41.7172 37.0129 40.5956 37.7281 39.4 38.3C38.0057 38.9759 36.5252 39.4571 35 39.73V35C35 34.2044 34.6839 33.4413 34.1213 32.8787C33.5587 32.3161 32.7956 32 32 32C31.2044 32 30.4413 32.3161 29.8787 32.8787C29.3161 33.4413 29 34.2044 29 35V39.73C27.4719 39.4556 25.9883 38.9745 24.59 38.3C21.8693 36.9845 19.5506 34.9645 17.8747 32.4498C16.1988 29.935 15.2269 27.0174 15.06 24H48.94C48.8109 26.3484 48.1927 28.644 47.125 30.7397C46.0574 32.8354 44.5638 34.6849 42.74 36.17V36.17ZM13 22C12.7348 22 12.4804 21.8947 12.2929 21.7071C12.1054 21.5196 12 21.2652 12 21C12 20.7348 12.1054 20.4804 12.2929 20.2929C12.4804 20.1054 12.7348 20 13 20H51C51.2652 20 51.5196 20.1054 51.7071 20.2929C51.8946 20.4804 52 20.7348 52 21C52 21.2652 51.8946 21.5196 51.7071 21.7071C51.5196 21.8947 51.2652 22 51 22H13Z" fill="black"/>
</svg>
